<?xml version="1.0" encoding="UTF-8" standalone="no"?>
<!-- Created with Inkscape (http://www.inkscape.org/) -->

<svg
   width="788.71069"
   height="773.88196"
   viewBox="0 0 788.71069 773.88196"
   version="1.1"
   id="svg1"
   xml:space="preserve"
   xmlns:xlink="http://www.w3.org/1999/xlink"
   xmlns="http://www.w3.org/2000/svg"
   xmlns:svg="http://www.w3.org/2000/svg"><defs
     id="defs1"><linearGradient
       id="linearGradient21"><stop
         style="stop-color:#2c5021;stop-opacity:0;"
         offset="0"
         id="stop22" /><stop
         style="stop-color:#2c5021;stop-opacity:1;"
         offset="0.09845132"
         id="stop24" /><stop
         style="stop-color:#2c5021;stop-opacity:1;"
         offset="0.89601767"
         id="stop25" /><stop
         style="stop-color:#2c5021;stop-opacity:0;"
         offset="1"
         id="stop23" /></linearGradient><linearGradient
       id="linearGradient18"><stop
         style="stop-color:#2c5021;stop-opacity:0;"
         offset="0"
         id="stop18" /><stop
         style="stop-color:#2c5021;stop-opacity:1;"
         offset="0.10176992"
         id="stop20" /><stop
         style="stop-color:#2c5021;stop-opacity:1;"
         offset="0.89823008"
         id="stop21" /><stop
         style="stop-color:#2c5021;stop-opacity:0;"
         offset="1"
         id="stop19" /></linearGradient><linearGradient
       xlink:href="#linearGradient18"
       id="linearGradient19"
       x1="145.64465"
       y1="539.30603"
       x2="934.35535"
       y2="539.30603"
       gradientUnits="userSpaceOnUse" /><linearGradient
       xlink:href="#linearGradient21"
       id="linearGradient23"
       x1="160.47345"
       y1="539.30603"
       x2="934.35529"
       y2="539.30603"
       gradientUnits="userSpaceOnUse" /></defs><g
     id="layer1"
     transform="translate(-145.64465,-153.05904)"><path
       style="fill:none;fill-opacity:1;stroke:url(#linearGradient23);stroke-width:25;stroke-linecap:round;stroke-miterlimit:5;stroke-dasharray:none"
       d="m 921.85535,453.19438 h -94.8891 v 84.63082 h -81.98844 82.09215 v 87.59244 h 94.03425 M 172.97339,453.19438 h 94.8891 v 84.63082 h 81.98844 -82.09215 v 87.59244 h -94.03425"
       id="path16-8"
       transform="rotate(-90,544.05419,543.3602)" /><path
       style="fill:none;fill-opacity:1;stroke:url(#linearGradient19);stroke-width:25;stroke-linecap:round;stroke-miterlimit:5;stroke-dasharray:none"
       d="m 921.85535,453.19438 h -94.8891 v 84.63082 h -89.55264 89.65635 v 87.59244 h 94.03425 M 158.14465,453.19438 h 94.8891 v 84.63082 h 89.55264 -89.65635 v 87.59244 h -94.03425"
       id="path16" /><ellipse
       style="fill:#ffffff;fill-opacity:1;stroke:#2c5021;stroke-width:14.2251;stroke-linecap:round;stroke-miterlimit:2.1;stroke-dasharray:none;stroke-opacity:1"
       id="path9"
       cx="431.4617"
       cy="473.06268"
       rx="191.36501"
       ry="191.36456"
       transform="matrix(1.0544771,0,0,1.0544771,85.033517,41.166234)" /><path
       style="fill:#2c5021;fill-opacity:1;stroke:#2c5021;stroke-width:10;stroke-linecap:round;stroke-miterlimit:4.7;stroke-dasharray:none;stroke-opacity:1"
       id="path10"
       d="m 567.10657,478.82069 -322.32209,0 161.16105,-279.13911 z"
       transform="matrix(0.66646832,0,0,0.38812553,268.18945,322.77872)" /><path
       id="rect10"
       style="fill:#2c5021;fill-opacity:1;stroke:#2c5021;stroke-width:10;stroke-linecap:round;stroke-miterlimit:2.1;stroke-dasharray:none;stroke-opacity:1"
       d="m 311.68896,370.8435 c -1.14002,0 -2.05808,0.91672 -2.05808,2.05674 v 213.39761 c 0,1.14003 0.91806,2.06004 2.05808,2.06004 H 387.6702 V 482.64796 c 0,-0.69534 0.45967,-1.25379 1.03268,-1.25379 h 59.36839 c 0.57301,0 1.03269,0.55845 1.03269,1.25379 v 105.70993 h 75.98123 c 1.14003,0 2.05808,-0.92001 2.05808,-2.06004 V 372.90024 c 0,-1.14002 -0.91805,-2.05674 -2.05808,-2.05674 z"
       transform="matrix(0.80380659,0,0,0.53810128,203.61275,327.04267)" /></g></svg>
